<?xml version="1.0" standalone="no"?>
<!DOCTYPE svg PUBLIC "-//W3C//DTD SVG 20010904//EN" "http://www.w3.org/TR/2001/REC-SVG-20010904/DTD/svg10.dtd">
<svg
  version="1.0"
  xmlns="http://www.w3.org/2000/svg"
  width="200.000000pt"
  height="200.000000pt"
  viewBox="0 0 200.000000 200.000000"
  preserveAspectRatio="xMidYMid meet"
>
  <g
    transform="translate(0.000000,200.000000) scale(0.100000,-0.100000)"
    fill="#000000"
    stroke="none"
  >
    <path
      d="M848 1742 l-148 -86 0 -133 c0 -126 1 -133 20 -133 19 0 20 7 20 105
0 58 2 105 5 105 3 0 57 -30 120 -66 l115 -67 0 -143 c0 -79 -2 -144 -5 -144
-4 0 -76 41 -142 81 -31 19 -32 19 -42 1 -9 -16 3 -26 96 -81 59 -34 111 -60
118 -59 6 2 56 30 112 62 90 52 101 61 92 78 -10 18 -11 18 -42 -1 -66 -40
-138 -81 -142 -81 -3 0 -5 65 -5 144 l0 143 115 67 c63 36 117 66 120 66 3 0
5 -47 5 -105 0 -98 1 -105 20 -105 19 0 20 7 20 133 l0 132 -150 88 c-82 48
-151 87 -152 87 -2 -1 -69 -40 -150 -88z m269 -28 c62 -36 113 -69 113 -72 0
-9 -214 -132 -230 -132 -16 0 -230 123 -230 132 0 6 219 137 229 138 3 0 55
-30 118 -66z"
    />
    <path
      d="M705 1320 c-125 -79 -142 -87 -160 -76 -66 42 -184 106 -196 106 -8
-1 -77 -38 -154 -83 l-140 -83 0 -184 0 -184 140 -83 c77 -45 147 -82 155 -83
8 0 61 27 117 60 74 44 101 64 97 75 -9 22 -17 20 -103 -30 -43 -25 -81 -45
-84 -45 -4 0 -7 64 -7 143 l1 142 117 67 117 67 3 -105 c2 -96 4 -104 22 -104
19 0 20 7 20 134 0 126 -1 135 -20 141 -11 4 -18 10 -15 15 3 4 61 43 130 85
109 68 123 80 114 96 -5 11 -11 19 -12 18 -1 0 -65 -40 -142 -89z m-240 -76
c63 -37 115 -70 115 -74 0 -4 -51 -37 -114 -74 l-115 -66 -115 67 c-64 37
-116 70 -116 73 0 4 215 135 228 139 2 1 54 -29 117 -65z m-247 -184 l112 -65
0 -142 c0 -79 -2 -143 -5 -143 -3 0 -57 30 -120 66 l-115 67 0 144 c0 80 4
143 8 141 4 -1 58 -32 120 -68z"
    />
    <path
      d="M1141 1391 c-9 -16 4 -27 114 -96 69 -42 127 -81 130 -85 3 -5 -4
-11 -15 -15 -19 -6 -20 -15 -20 -141 0 -127 1 -134 20 -134 18 0 20 8 22 105
l3 105 115 -68 115 -67 3 -143 c1 -78 -1 -142 -5 -142 -5 0 -43 20 -85 45 -85
49 -93 52 -102 30 -4 -11 23 -31 97 -75 56 -33 109 -60 117 -60 8 1 78 38 155
83 l140 83 0 184 0 184 -140 83 c-77 45 -147 82 -155 82 -8 1 -58 -25 -110
-55 -52 -31 -99 -57 -105 -57 -9 0 -77 40 -227 137 -54 34 -58 35 -67 17z
m627 -151 c62 -35 112 -67 112 -70 0 -3 -52 -36 -116 -73 l-115 -67 -115 67
c-63 36 -113 70 -112 74 4 10 220 139 229 136 3 -1 56 -31 117 -67z m142 -254
l0 -143 -115 -67 c-63 -36 -117 -66 -120 -66 -3 0 -5 64 -5 143 l0 142 113 67
c61 36 115 67 120 67 4 1 7 -64 7 -143z"
    />
    <path
      d="M491 916 c-10 -11 13 -29 120 -97 127 -79 131 -83 111 -97 -21 -14
-22 -21 -22 -196 l0 -181 150 -88 150 -87 150 87 150 88 0 181 c0 175 -1 182
-22 196 -20 14 -16 18 111 97 118 74 131 85 118 99 -14 13 -30 6 -144 -65 -70
-44 -133 -83 -140 -87 -6 -3 -57 21 -112 54 -56 33 -105 60 -110 60 -5 0 -56
-27 -112 -60 -56 -32 -107 -56 -113 -53 -6 3 -68 41 -137 84 -70 44 -129 79
-131 79 -3 0 -11 -6 -17 -14z m635 -153 l115 -66 -93 -54 c-164 -96 -132 -94
-268 -16 -65 37 -117 69 -115 71 13 13 222 131 233 132 7 0 65 -30 128 -67z
m-247 -183 c51 -30 95 -59 97 -65 3 -6 3 -72 2 -147 l-3 -136 -115 67 -115 67
-3 148 -3 149 23 -15 c13 -8 65 -39 117 -68z m377 -205 c-2 -6 -46 -35 -97
-65 -52 -29 -104 -60 -117 -68 l-23 -15 3 149 3 148 115 67 115 67 3 -136 c1
-75 1 -141 -2 -147z"
    />
  </g>
</svg>